<?xml version="1.0" encoding="utf-8"?>
<!-- Generator: Adobe Illustrator 17.0.0, SVG Export Plug-In . SVG Version: 6.00 Build 0)  -->
<!DOCTYPE svg PUBLIC "-//W3C//DTD SVG 1.1//EN" "http://www.w3.org/Graphics/SVG/1.1/DTD/svg11.dtd">
<svg version="1.1" id="Layer_1" xmlns="http://www.w3.org/2000/svg" xmlns:xlink="http://www.w3.org/1999/xlink" x="0px" y="0px"
	 width="150px" height="50px" viewBox="0 0 150 50" enable-background="new 0 0 150 50" xml:space="preserve">
<g>
	<linearGradient id="SVGID_1_" gradientUnits="userSpaceOnUse" x1="26.3797" y1="29.2586" x2="36.4295" y2="23.4564">
		<stop  offset="0" style="stop-color:#D1D3D4"/>
		<stop  offset="1" style="stop-color:#6D6E71"/>
	</linearGradient>
	<path fill="url(#SVGID_1_)" d="M34.214,33.494c-0.532-0.576-0.916-1.246-1.154-2.01c-0.196-0.628-0.29-1.301-0.325-2.002
		c-0.047-0.214-0.082-0.433-0.099-0.659c-0.027-0.391-0.04-0.736-0.04-1.039c0-0.159,0.013-0.479,0.04-0.958
		c0.028-0.479,0.065-1.037,0.111-1.676c0.045-0.639,0.092-1.312,0.137-2.023c0.045-0.709,0.09-1.366,0.136-1.969
		c0.046-0.603,0.083-1.113,0.111-1.53c0.027-0.417,0.041-0.652,0.041-0.706c0-0.904-0.192-1.588-0.576-2.049
		c-0.385-0.461-1.136-0.692-2.252-0.692h-1.509c-0.147,0-0.257,0.049-0.33,0.146c-0.074,0.097-0.12,0.315-0.137,0.652
		c-0.019,0.319-0.055,0.785-0.109,1.398c-0.056,0.612-0.115,1.3-0.179,2.062c-0.065,0.764-0.133,1.566-0.207,2.408
		c-0.073,0.844-0.142,1.655-0.206,2.436c-0.064,0.781-0.114,1.504-0.151,2.169c-0.037,0.665-0.055,1.193-0.055,1.583
		c0,0.87,0.118,1.686,0.356,2.449c0.238,0.764,0.622,1.434,1.154,2.01c0.531,0.576,1.216,1.029,2.059,1.357
		c0.841,0.328,1.856,0.493,3.047,0.493c1.014,0,1.9-0.117,2.675-0.337c-0.164-0.049-0.328-0.097-0.481-0.156
		C35.43,34.523,34.744,34.07,34.214,33.494z"/>
	<linearGradient id="SVGID_2_" gradientUnits="userSpaceOnUse" x1="47.4203" y1="23.465" x2="34.4285" y2="30.9659">
		<stop  offset="0" style="stop-color:#D1D3D4"/>
		<stop  offset="1" style="stop-color:#6D6E71"/>
	</linearGradient>
	<path fill="url(#SVGID_2_)" d="M45.162,33.494c-0.515-0.576-0.888-1.247-1.119-2.01c-0.19-0.628-0.282-1.301-0.315-2.002
		c-0.045-0.214-0.08-0.433-0.096-0.659c-0.026-0.391-0.039-0.736-0.039-1.039c0-0.159,0.013-0.479,0.039-0.958
		c0.027-0.479,0.063-1.037,0.107-1.676c0.003-0.036,0.005-0.077,0.008-0.113c0.041-0.607,0.084-1.239,0.126-1.91
		c0.043-0.709,0.088-1.366,0.132-1.969c0.044-0.603,0.08-1.113,0.107-1.53c0.026-0.417,0.04-0.652,0.04-0.706
		c0-0.383-0.052-0.704-0.118-1.008c-0.02-0.078-0.021-0.158-0.047-0.235c-0.002-0.005-0.001-0.01-0.003-0.015
		c-0.003-0.01-0.013-0.016-0.017-0.025c-0.092-0.294-0.208-0.56-0.374-0.766c-0.374-0.461-1.101-0.692-2.183-0.692h-1.463
		c-0.067,0-0.099,0.047-0.15,0.069c-0.033,0.014-0.071,0.023-0.105,0.036c-0.024,0.009-0.064,0.014-0.077,0.027
		c-0.077,0.073-0.123,0.31-0.144,0.71c-0.114,1.514-0.212,2.783-0.299,3.928c-0.051,0.614-0.101,1.233-0.158,1.897
		c-0.07,0.844-0.138,1.655-0.199,2.435c-0.023,0.296-0.036,0.542-0.055,0.822c-0.044,0.548-0.081,1.034-0.102,1.39
		c-0.028,0.501-0.042,0.888-0.042,1.16c0,0.021,0.006,0.034,0.006,0.054c-0.002,0.108-0.006,0.234-0.006,0.327
		c0,0.089,0.015,0.171,0.018,0.259c0,0,0,0,0,0c-0.199,0.488-0.456,0.923-0.794,1.286c-0.382,0.408-0.874,0.612-1.477,0.612
		c-0.479,0-0.848-0.12-1.105-0.36c-0.258-0.239-0.444-0.536-0.559-0.891c-0.049-0.149-0.085-0.303-0.118-0.459
		c0.033,0.701,0.125,1.374,0.315,2.002c0.231,0.764,0.603,1.434,1.119,2.01c0.514,0.576,1.179,1.029,1.996,1.357
		c0.148,0.059,0.307,0.107,0.466,0.156c0.116-0.034,0.236-0.064,0.347-0.103c0.685-0.243,1.267-0.569,1.787-0.947
		c-0.181-0.151-0.377-0.29-0.531-0.463c-0.515-0.576-0.888-1.246-1.119-2.01c-0.104-0.344-0.181-0.702-0.234-1.07
		c0.057,0.366,0.13,0.726,0.234,1.07c0.231,0.763,0.603,1.434,1.119,2.01c0.514,0.576,1.179,1.029,1.996,1.357
		c0.815,0.328,1.8,0.493,2.954,0.493c0.983,0,1.843-0.117,2.593-0.337c-0.159-0.049-0.318-0.097-0.466-0.156
		C46.341,34.523,45.676,34.07,45.162,33.494z"/>
	<linearGradient id="SVGID_3_" gradientUnits="userSpaceOnUse" x1="56.8256" y1="26.5131" x2="44.8109" y2="19.5764">
		<stop  offset="0" style="stop-color:#D1D3D4"/>
		<stop  offset="1" style="stop-color:#6D6E71"/>
	</linearGradient>
	<path fill="url(#SVGID_3_)" d="M54.79,18.547c-0.191-0.628-0.481-1.137-0.871-1.529c-0.39-0.391-0.881-0.669-1.471-0.832
		c-0.59-0.164-1.285-0.247-2.084-0.247c-1.143,0-2.094,0.188-2.856,0.56c-0.762,0.373-1.436,1.042-2.026,2.008
		c-0.015-0.207-0.004,0.014-0.004,0.397c0,0.054-0.014,0.289-0.04,0.706c-0.027,0.417-0.063,0.927-0.107,1.53
		c-0.044,0.603-0.089,1.259-0.132,1.969c-0.042,0.671-0.084,1.303-0.126,1.91c0.188-1.373,0.423-2.47,0.709-3.263
		c0.295-0.819,0.66-1.383,1.099-1.693c0.437-0.309,0.99-0.463,1.654-0.463c0.686,0,1.148,0.187,1.385,0.559
		c0.239,0.373,0.358,0.797,0.358,1.27c0,0.455-0.033,1.02-0.1,1.693c-0.067,0.673-0.133,1.37-0.2,2.089
		c-0.067,0.719-0.132,1.402-0.2,2.048c-0.067,0.647-0.1,1.17-0.1,1.57c0,0.382,0.042,0.724,0.128,1.024
		c0.086,0.3,0.235,0.551,0.444,0.751c0.209,0.2,0.504,0.354,0.885,0.464c0.379,0.109,0.874,0.163,1.485,0.163h0.913
		c0.323,0,0.532-0.041,0.627-0.123c0.095-0.081,0.144-0.322,0.144-0.723c0-0.146,0.019-0.446,0.056-0.901
		c0.04-0.454,0.086-0.983,0.144-1.583c0.056-0.601,0.119-1.252,0.186-1.952c0.065-0.701,0.128-1.374,0.184-2.021
		c0.058-0.646,0.105-1.242,0.144-1.789c0.037-0.546,0.056-0.964,0.056-1.256C55.073,19.954,54.978,19.176,54.79,18.547z"/>
	<path fill="#A7A9AC" d="M62.454,20.022c-0.058,0.692-0.121,1.374-0.186,2.048c-0.067,0.673-0.128,1.311-0.186,1.911
		c-0.058,0.601-0.1,1.139-0.128,1.611c-0.03,0.474-0.044,0.838-0.044,1.093c0,0.473,0.058,0.787,0.172,0.941
		c0.114,0.156,0.304,0.232,0.572,0.232c0.209,0,0.39-0.036,0.541-0.109c0.153-0.072,0.295-0.154,0.43-0.246
		c0.132-0.091,0.251-0.173,0.356-0.246c0.105-0.073,0.223-0.11,0.358-0.11c0.132,0,0.256,0.073,0.369,0.219
		c0.116,0.146,0.172,0.482,0.172,1.01c0,1.001-0.286,1.793-0.855,2.375c-0.572,0.583-1.552,0.874-2.942,0.874
		c-1.371,0-2.384-0.304-3.042-0.916c-0.655-0.609-0.985-1.542-0.985-2.799c0-0.272,0.014-0.596,0.044-0.969
		c0.028-0.373,0.07-0.86,0.128-1.461s0.128-1.338,0.214-2.211c0.086-0.874,0.177-1.958,0.272-3.25h-1.513
		c-0.153,0-0.244-0.031-0.272-0.096c-0.028-0.063-0.044-0.159-0.044-0.287l0.086-1.392c0.019-0.237,0.053-0.469,0.1-0.697
		c0.049-0.228,0.144-0.432,0.286-0.614c0.144-0.182,0.349-0.328,0.613-0.437c0.267-0.11,0.62-0.164,1.057-0.164
		c0.132-0.328,0.286-0.719,0.458-1.174c0.17-0.454,0.342-0.896,0.514-1.324c0.172-0.427,0.337-0.787,0.5-1.078
		c0.16-0.291,0.309-0.437,0.442-0.437h0.83c0.799,0,1.35,0.237,1.655,0.71s0.458,1.037,0.458,1.692c0,0.364-0.028,0.901-0.086,1.611
		h2.998c0.304,0,0.458,0.128,0.458,0.382l-0.114,1.474c-0.04,0.547-0.195,0.988-0.472,1.324c-0.277,0.338-0.841,0.506-1.699,0.506
		H62.454z"/>
	<path fill="#A7A9AC" d="M65.135,27.995c0-1.638,0.771-2.921,2.312-3.85c1.543-0.929,3.818-1.429,6.825-1.502
		c0.019-0.2,0.035-0.369,0.044-0.504c0.009-0.137,0.014-0.306,0.014-0.506c0-0.582-0.114-1.047-0.344-1.392
		c-0.228-0.346-0.704-0.519-1.427-0.519c-0.4,0-0.723,0.054-0.971,0.163c-0.246,0.109-0.446,0.26-0.6,0.451
		c-0.151,0.191-0.277,0.423-0.372,0.696c-0.095,0.273-0.179,0.573-0.256,0.901c-0.04,0.164-0.125,0.269-0.258,0.314
		c-0.132,0.046-0.342,0.068-0.627,0.068c-1.943,0-2.912-0.7-2.912-2.102c0-0.564,0.137-1.101,0.414-1.611
		c0.274-0.509,0.686-0.951,1.227-1.324c0.544-0.373,1.222-0.669,2.043-0.888c0.818-0.218,1.771-0.328,2.856-0.328
		c2.112,0,3.644,0.42,4.596,1.257c0.95,0.838,1.427,2.021,1.427,3.55c0,0.2-0.023,0.56-0.07,1.079
		c-0.049,0.519-0.107,1.064-0.172,1.638c-0.067,0.573-0.125,1.116-0.172,1.624c-0.046,0.51-0.072,0.866-0.072,1.066
		c0,0.456,0.086,0.778,0.258,0.969c0.172,0.191,0.367,0.323,0.586,0.397c0.218,0.072,0.414,0.127,0.586,0.163
		s0.256,0.128,0.256,0.273c0,0.4-0.056,0.81-0.17,1.229c-0.114,0.419-0.3,0.801-0.558,1.147c-0.258,0.346-0.609,0.628-1.057,0.847
		c-0.446,0.218-0.995,0.328-1.641,0.328c-0.913,0-1.599-0.21-2.057-0.628c-0.458-0.419-0.762-1.001-0.913-1.748
		c-0.458,0.637-1.053,1.192-1.785,1.666c-0.734,0.473-1.689,0.71-2.87,0.71c-0.572,0-1.108-0.064-1.613-0.191
		c-0.504-0.128-0.943-0.337-1.315-0.629c-0.369-0.29-0.665-0.669-0.885-1.132C65.245,29.21,65.135,28.65,65.135,27.995z
		 M74.017,24.881c-0.495,0-0.981,0.038-1.457,0.11s-0.899,0.187-1.271,0.341c-0.372,0.154-0.672,0.36-0.899,0.614
		c-0.228,0.256-0.342,0.564-0.342,0.929c0,0.419,0.137,0.71,0.414,0.873s0.576,0.246,0.899,0.246c0.304,0,0.609-0.063,0.913-0.191
		c0.304-0.127,0.576-0.323,0.813-0.587c0.239-0.264,0.444-0.588,0.616-0.97C73.873,25.865,73.977,25.41,74.017,24.881z"/>
	<path fill="#A7A9AC" d="M90.234,16.062c1.789,0,3.137,0.529,4.041,1.584s1.357,2.721,1.357,4.997c0,1.42-0.172,2.685-0.514,3.795
		c-0.344,1.111-0.82,2.053-1.429,2.827c-0.609,0.774-1.322,1.361-2.14,1.761c-0.82,0.4-1.706,0.601-2.656,0.601
		c-1.009,0-1.799-0.21-2.37-0.628c-0.572-0.419-1.018-1.011-1.343-1.775c-0.056,0.656-0.105,1.157-0.142,1.502
		s-0.067,0.623-0.086,0.832c-0.019,0.209-0.033,0.397-0.042,0.56c-0.009,0.164-0.03,0.382-0.058,0.656s-0.063,0.646-0.1,1.12
		c-0.037,0.472-0.095,1.128-0.172,1.965c-0.019,0.219-0.065,0.364-0.142,0.437c-0.077,0.073-0.239,0.11-0.486,0.11h-1.027
		c-0.59,0-1.071-0.06-1.443-0.178c-0.372-0.119-0.667-0.287-0.885-0.506c-0.218-0.218-0.369-0.487-0.455-0.806
		s-0.13-0.687-0.13-1.106c0-0.182,0.03-0.673,0.086-1.474c0.058-0.801,0.13-1.761,0.214-2.881c0.086-1.12,0.181-2.325,0.286-3.618
		c0.105-1.292,0.204-2.527,0.3-3.7c0.095-1.174,0.177-2.217,0.244-3.127c0.065-0.91,0.119-1.539,0.156-1.884
		c0.019-0.4,0.067-0.637,0.144-0.71c0.056-0.054,0.209-0.082,0.455-0.082h1.115c1.027,0,1.773,0.206,2.24,0.614
		c0.467,0.41,0.699,0.897,0.699,1.461c0.439-0.837,1.004-1.438,1.699-1.802C88.345,16.244,89.207,16.062,90.234,16.062z
		 M88.15,19.694c-0.969,0-1.685,0.401-2.14,1.201c-0.458,0.802-0.686,1.894-0.686,3.278c0,0.473,0.033,0.938,0.1,1.392
		c0.067,0.456,0.186,0.864,0.358,1.229c0.17,0.364,0.402,0.656,0.699,0.873c0.293,0.219,0.669,0.328,1.127,0.328
		c0.818,0,1.503-0.382,2.057-1.147c0.551-0.764,0.827-1.967,0.827-3.604c0-0.454-0.033-0.897-0.1-1.324
		c-0.067-0.428-0.186-0.806-0.358-1.133c-0.17-0.328-0.409-0.591-0.713-0.792C89.017,19.794,88.626,19.694,88.15,19.694z"/>
	<path fill="#A7A9AC" d="M98.375,26.492c0.799,0,1.369,0.188,1.713,0.56c0.342,0.373,0.514,0.897,0.514,1.57
		c0,0.273-0.037,0.588-0.114,0.942c-0.077,0.356-0.214,0.683-0.414,0.983s-0.481,0.556-0.844,0.764
		c-0.363,0.209-0.837,0.314-1.427,0.314c-0.876,0-1.466-0.214-1.771-0.642c-0.304-0.428-0.458-0.96-0.458-1.597
		c0-0.364,0.049-0.72,0.144-1.066c0.095-0.346,0.246-0.656,0.455-0.929c0.209-0.272,0.495-0.491,0.857-0.654
		C97.394,26.575,97.84,26.492,98.375,26.492z"/>
	<path fill="#A7A9AC" d="M104.512,31.353c-0.59,0-1.069-0.059-1.441-0.178c-0.372-0.118-0.667-0.287-0.885-0.504
		c-0.218-0.219-0.372-0.488-0.458-0.806c-0.084-0.319-0.128-0.688-0.128-1.107c0-0.272,0.014-0.659,0.044-1.16
		c0.028-0.501,0.079-1.192,0.156-2.075c0.077-0.882,0.167-2.002,0.272-3.359c0.105-1.356,0.232-3.035,0.386-5.038
		c0.019-0.4,0.065-0.637,0.142-0.71c0.058-0.054,0.209-0.082,0.458-0.082h1.113c0.59,0,1.071,0.054,1.443,0.164
		c0.369,0.109,0.665,0.272,0.883,0.491c0.221,0.219,0.372,0.482,0.458,0.792c0.086,0.31,0.128,0.656,0.128,1.038
		c0,0.272-0.019,0.682-0.056,1.229c-0.04,0.546-0.091,1.288-0.158,2.224c-0.067,0.939-0.156,2.103-0.272,3.495
		c-0.114,1.393-0.256,3.072-0.428,5.038c-0.019,0.219-0.067,0.364-0.142,0.438c-0.077,0.072-0.239,0.109-0.486,0.109H104.512z
		 M102.485,13.113c0-0.728,0.277-1.301,0.827-1.72c0.553-0.419,1.294-0.628,2.228-0.628c0.818,0,1.413,0.159,1.785,0.478
		c0.372,0.319,0.555,0.742,0.555,1.27c0,0.673-0.26,1.233-0.783,1.679c-0.525,0.447-1.292,0.669-2.301,0.669
		C103.257,14.861,102.485,14.278,102.485,13.113z"/>
	<path fill="#A7A9AC" d="M117.618,28.95c0-0.4,0.033-0.923,0.1-1.57c0.067-0.646,0.132-1.329,0.2-2.048
		c0.067-0.719,0.132-1.416,0.2-2.089s0.1-1.238,0.1-1.693c0-0.473-0.119-0.897-0.358-1.27c-0.237-0.372-0.699-0.559-1.385-0.559
		c-0.665,0-1.218,0.154-1.655,0.463c-0.439,0.31-0.804,0.874-1.099,1.693c-0.295,0.819-0.539,1.948-0.73,3.387
		c-0.191,1.438-0.369,3.285-0.541,5.542c-0.019,0.219-0.067,0.364-0.144,0.438c-0.074,0.072-0.237,0.109-0.483,0.109h-1.029
		c-0.59,0-1.071-0.059-1.441-0.178c-0.372-0.118-0.667-0.287-0.885-0.504c-0.221-0.219-0.372-0.488-0.458-0.806
		c-0.086-0.319-0.128-0.688-0.128-1.107c0-0.272,0.014-0.659,0.042-1.16c0.03-0.501,0.081-1.192,0.158-2.075
		c0.074-0.882,0.165-2.002,0.272-3.359c0.102-1.356,0.232-3.035,0.383-5.038c0.021-0.4,0.067-0.637,0.144-0.71
		c0.056-0.054,0.209-0.082,0.455-0.082h1.115c0.569,0,1.041,0.064,1.413,0.191c0.372,0.128,0.672,0.297,0.899,0.506
		c0.228,0.209,0.39,0.456,0.486,0.737c0.095,0.283,0.151,0.57,0.172,0.861c0.59-0.966,1.264-1.634,2.026-2.008
		c0.762-0.372,1.713-0.56,2.856-0.56c0.799,0,1.494,0.082,2.084,0.247c0.59,0.163,1.081,0.441,1.471,0.832
		c0.39,0.392,0.681,0.901,0.871,1.529c0.188,0.629,0.284,1.407,0.284,2.335c0,0.291-0.019,0.71-0.056,1.256
		c-0.04,0.547-0.086,1.143-0.144,1.789c-0.056,0.647-0.119,1.32-0.184,2.021c-0.067,0.7-0.13,1.351-0.186,1.952
		c-0.058,0.6-0.105,1.129-0.144,1.583c-0.037,0.456-0.056,0.756-0.056,0.901c0,0.401-0.049,0.642-0.144,0.723
		c-0.095,0.082-0.304,0.123-0.627,0.123h-0.913c-0.611,0-1.106-0.054-1.485-0.163c-0.381-0.11-0.676-0.264-0.885-0.464
		s-0.358-0.451-0.444-0.751C117.659,29.675,117.618,29.332,117.618,28.95z"/>
</g>
</svg>
