<?xml version="1.0" encoding="UTF-8" standalone="no"?>
<svg width="96px" height="27px" viewBox="0 0 96 27" version="1.1" xmlns="http://www.w3.org/2000/svg" xmlns:xlink="http://www.w3.org/1999/xlink" xmlns:sketch="http://www.bohemiancoding.com/sketch/ns">
    <title>Slice 1</title>
    <description>Created with Sketch (http://www.bohemiancoding.com/sketch)</description>
    <defs>
        <linearGradient x1="-11.6381444%" y1="68.2440119%" x2="96.5288989%" y2="37.9658717%" id="linearGradient-1">
            <stop stop-color="#D1D3D4" offset="0%"></stop>
            <stop stop-color="#6D6E71" offset="100%"></stop>
        </linearGradient>
        <linearGradient x1="98.4457905%" y1="38.0087664%" x2="-1.16929919%" y2="77.1493425%" id="linearGradient-2">
            <stop stop-color="#D1D3D4" offset="0%"></stop>
            <stop stop-color="#6D6E71" offset="100%"></stop>
        </linearGradient>
        <linearGradient x1="117.514249%" y1="69.1479205%" x2="-2.62073793%" y2="23.7862935%" id="linearGradient-3">
            <stop stop-color="#D1D3D4" offset="0%"></stop>
            <stop stop-color="#6D6E71" offset="100%"></stop>
        </linearGradient>
    </defs>
    <g id="Page-1" stroke="none" stroke-width="1" fill="none" fill-rule="evenodd" sketch:type="MSPage">
        <g id="untap" sketch:type="MSLayerGroup" transform="translate(0.000000, 1.000000)">
            <g id="Group" sketch:type="MSShapeGroup">
                <path d="M7.214,22.494 C6.682,21.918 6.298,21.248 6.06,20.484 C5.864,19.856 5.77,19.183 5.735,18.482 C5.688,18.268 5.653,18.049 5.636,17.823 C5.609,17.432 5.596,17.087 5.596,16.784 C5.596,16.625 5.609,16.305 5.636,15.826 C5.664,15.347 5.701,14.789 5.747,14.15 C5.792,13.511 5.839,12.838 5.884,12.127 C5.929,11.418 5.974,10.761 6.02,10.158 C6.066,9.555 6.103,9.045 6.131,8.628 C6.158,8.211 6.172,7.976 6.172,7.922 C6.172,7.018 5.98,6.334 5.596,5.873 C5.211,5.412 4.46,5.181 3.344,5.181 L1.835,5.181 C1.688,5.181 1.578,5.23 1.505,5.327 C1.431,5.424 1.385,5.642 1.368,5.979 C1.349,6.298 1.313,6.764 1.259,7.377 C1.203,7.989 1.144,8.677 1.08,9.439 C1.015,10.203 0.947,11.005 0.873,11.847 C0.8,12.691 0.731,13.502 0.667,14.283 C0.603,15.064 0.553,15.787 0.516,16.452 C0.479,17.117 0.461,17.645 0.461,18.035 C0.461,18.905 0.579,19.721 0.817,20.484 C1.055,21.248 1.439,21.918 1.971,22.494 C2.502,23.07 3.187,23.523 4.03,23.851 C4.871,24.179 5.886,24.344 7.077,24.344 C8.091,24.344 8.977,24.227 9.752,24.007 C9.588,23.958 9.424,23.91 9.271,23.851 C8.43,23.523 7.744,23.07 7.214,22.494 L7.214,22.494 Z" id="Shape" fill="url(#linearGradient-1)"></path>
                <path d="M18.162,22.494 C17.647,21.918 17.274,21.247 17.043,20.484 C16.853,19.856 16.761,19.183 16.728,18.482 C16.683,18.268 16.648,18.049 16.632,17.823 C16.606,17.432 16.593,17.087 16.593,16.784 C16.593,16.625 16.606,16.305 16.632,15.826 C16.659,15.347 16.695,14.789 16.739,14.15 C16.742,14.114 16.744,14.073 16.747,14.037 C16.788,13.43 16.831,12.798 16.873,12.127 C16.916,11.418 16.961,10.761 17.005,10.158 C17.049,9.555 17.085,9.045 17.112,8.628 C17.138,8.211 17.152,7.976 17.152,7.922 C17.152,7.539 17.1,7.218 17.034,6.914 C17.014,6.836 17.013,6.756 16.987,6.679 C16.985,6.674 16.986,6.669 16.984,6.664 C16.981,6.654 16.971,6.648 16.967,6.639 C16.875,6.345 16.759,6.079 16.593,5.873 C16.219,5.412 15.492,5.181 14.41,5.181 L12.947,5.181 C12.88,5.181 12.848,5.228 12.797,5.25 C12.764,5.264 12.726,5.273 12.692,5.286 C12.668,5.295 12.628,5.3 12.615,5.313 C12.538,5.386 12.492,5.623 12.471,6.023 C12.357,7.537 12.259,8.806 12.172,9.951 C12.121,10.565 12.071,11.184 12.014,11.848 C11.944,12.692 11.876,13.503 11.815,14.283 C11.792,14.579 11.779,14.825 11.76,15.105 C11.716,15.653 11.679,16.139 11.658,16.495 C11.63,16.996 11.616,17.383 11.616,17.655 C11.616,17.676 11.622,17.689 11.622,17.709 C11.62,17.817 11.616,17.943 11.616,18.036 C11.616,18.125 11.631,18.207 11.634,18.295 L11.634,18.295 C11.435,18.783 11.178,19.218 10.84,19.581 C10.458,19.989 9.966,20.193 9.363,20.193 C8.884,20.193 8.515,20.073 8.258,19.833 C8,19.594 7.814,19.297 7.699,18.942 C7.65,18.793 7.614,18.639 7.581,18.483 C7.614,19.184 7.706,19.857 7.896,20.485 C8.127,21.249 8.499,21.919 9.015,22.495 C9.529,23.071 10.194,23.524 11.011,23.852 C11.159,23.911 11.318,23.959 11.477,24.008 C11.593,23.974 11.713,23.944 11.824,23.905 C12.509,23.662 13.091,23.336 13.611,22.958 C13.43,22.807 13.234,22.668 13.08,22.495 C12.565,21.919 12.192,21.249 11.961,20.485 C11.857,20.141 11.78,19.783 11.727,19.415 C11.784,19.781 11.857,20.141 11.961,20.485 C12.192,21.248 12.564,21.919 13.08,22.495 C13.594,23.071 14.259,23.524 15.076,23.852 C15.891,24.18 16.876,24.345 18.03,24.345 C19.013,24.345 19.873,24.228 20.623,24.008 C20.464,23.959 20.305,23.911 20.157,23.852 C19.341,23.523 18.676,23.07 18.162,22.494 L18.162,22.494 Z" id="Shape" fill="url(#linearGradient-2)"></path>
                <path d="M27.79,7.547 C27.599,6.919 27.309,6.41 26.919,6.018 C26.529,5.627 26.038,5.349 25.448,5.186 C24.858,5.022 24.163,4.939 23.364,4.939 C22.221,4.939 21.27,5.127 20.508,5.499 C19.746,5.872 19.072,6.541 18.482,7.507 C18.467,7.3 18.478,7.521 18.478,7.904 C18.478,7.958 18.464,8.193 18.438,8.61 C18.411,9.027 18.375,9.537 18.331,10.14 C18.287,10.743 18.242,11.399 18.199,12.109 C18.157,12.78 18.115,13.412 18.073,14.019 C18.261,12.646 18.496,11.549 18.782,10.756 C19.077,9.937 19.442,9.373 19.881,9.063 C20.318,8.754 20.871,8.6 21.535,8.6 C22.221,8.6 22.683,8.787 22.92,9.159 C23.159,9.532 23.278,9.956 23.278,10.429 C23.278,10.884 23.245,11.449 23.178,12.122 C23.111,12.795 23.045,13.492 22.978,14.211 C22.911,14.93 22.846,15.613 22.778,16.259 C22.711,16.906 22.678,17.429 22.678,17.829 C22.678,18.211 22.72,18.553 22.806,18.853 C22.892,19.153 23.041,19.404 23.25,19.604 C23.459,19.804 23.754,19.958 24.135,20.068 C24.514,20.177 25.009,20.231 25.62,20.231 L26.533,20.231 C26.856,20.231 27.065,20.19 27.16,20.108 C27.255,20.027 27.304,19.786 27.304,19.385 C27.304,19.239 27.323,18.939 27.36,18.484 C27.4,18.03 27.446,17.501 27.504,16.901 C27.56,16.3 27.623,15.649 27.69,14.949 C27.755,14.248 27.818,13.575 27.874,12.928 C27.932,12.282 27.979,11.686 28.018,11.139 C28.055,10.593 28.074,10.175 28.074,9.883 C28.073,8.954 27.978,8.176 27.79,7.547 L27.79,7.547 Z" id="Shape" fill="url(#linearGradient-3)"></path>
                <path d="M35.454,9.022 C35.396,9.714 35.333,10.396 35.268,11.07 C35.201,11.743 35.14,12.381 35.082,12.981 C35.024,13.582 34.982,14.12 34.954,14.592 C34.924,15.066 34.91,15.43 34.91,15.685 C34.91,16.158 34.968,16.472 35.082,16.626 C35.196,16.782 35.386,16.858 35.654,16.858 C35.863,16.858 36.044,16.822 36.195,16.749 C36.348,16.677 36.49,16.595 36.625,16.503 C36.757,16.412 36.876,16.33 36.981,16.257 C37.086,16.184 37.204,16.147 37.339,16.147 C37.471,16.147 37.595,16.22 37.708,16.366 C37.824,16.512 37.88,16.848 37.88,17.376 C37.88,18.377 37.594,19.169 37.025,19.751 C36.453,20.334 35.473,20.625 34.083,20.625 C32.712,20.625 31.699,20.321 31.041,19.709 C30.386,19.1 30.056,18.167 30.056,16.91 C30.056,16.638 30.07,16.314 30.1,15.941 C30.128,15.568 30.17,15.081 30.228,14.48 C30.286,13.879 30.356,13.142 30.442,12.269 C30.528,11.395 30.619,10.311 30.714,9.019 L29.201,9.019 C29.048,9.019 28.957,8.988 28.929,8.923 C28.901,8.86 28.885,8.764 28.885,8.636 L28.971,7.244 C28.99,7.007 29.024,6.775 29.071,6.547 C29.12,6.319 29.215,6.115 29.357,5.933 C29.501,5.751 29.706,5.605 29.97,5.496 C30.237,5.386 30.59,5.332 31.027,5.332 C31.159,5.004 31.313,4.613 31.485,4.158 C31.655,3.704 31.827,3.262 31.999,2.834 C32.171,2.407 32.336,2.047 32.499,1.756 C32.659,1.465 32.808,1.319 32.941,1.319 L33.771,1.319 C34.57,1.319 35.121,1.556 35.426,2.029 C35.731,2.502 35.884,3.066 35.884,3.721 C35.884,4.085 35.856,4.622 35.798,5.332 L38.796,5.332 C39.1,5.332 39.254,5.46 39.254,5.714 L39.14,7.188 C39.1,7.735 38.945,8.176 38.668,8.512 C38.391,8.85 37.827,9.018 36.969,9.018 L35.454,9.018 L35.454,9.022 Z" id="Shape" fill="#A7A9AC"></path>
                <path d="M38.135,16.995 C38.135,15.357 38.906,14.074 40.447,13.145 C41.99,12.216 44.265,11.716 47.272,11.643 C47.291,11.443 47.307,11.274 47.316,11.139 C47.325,11.002 47.33,10.833 47.33,10.633 C47.33,10.051 47.216,9.586 46.986,9.241 C46.758,8.895 46.282,8.722 45.559,8.722 C45.159,8.722 44.836,8.776 44.588,8.885 C44.342,8.994 44.142,9.145 43.988,9.336 C43.837,9.527 43.711,9.759 43.616,10.032 C43.521,10.305 43.437,10.605 43.36,10.933 C43.32,11.097 43.235,11.202 43.102,11.247 C42.97,11.293 42.76,11.315 42.475,11.315 C40.532,11.315 39.563,10.615 39.563,9.213 C39.563,8.649 39.7,8.112 39.977,7.602 C40.251,7.093 40.663,6.651 41.204,6.278 C41.748,5.905 42.426,5.609 43.247,5.39 C44.065,5.172 45.018,5.062 46.103,5.062 C48.215,5.062 49.747,5.482 50.699,6.319 C51.649,7.157 52.126,8.34 52.126,9.869 C52.126,10.069 52.103,10.429 52.056,10.948 C52.007,11.467 51.949,12.012 51.884,12.586 C51.817,13.159 51.759,13.702 51.712,14.21 C51.666,14.72 51.64,15.076 51.64,15.276 C51.64,15.732 51.726,16.054 51.898,16.245 C52.07,16.436 52.265,16.568 52.484,16.642 C52.702,16.714 52.898,16.769 53.07,16.805 C53.242,16.841 53.326,16.933 53.326,17.078 C53.326,17.478 53.27,17.888 53.156,18.307 C53.042,18.726 52.856,19.108 52.598,19.454 C52.34,19.8 51.989,20.082 51.541,20.301 C51.095,20.519 50.546,20.629 49.9,20.629 C48.987,20.629 48.301,20.419 47.843,20.001 C47.385,19.582 47.081,19 46.93,18.253 C46.472,18.89 45.877,19.445 45.145,19.919 C44.411,20.392 43.456,20.629 42.275,20.629 C41.703,20.629 41.167,20.565 40.662,20.438 C40.158,20.31 39.719,20.101 39.347,19.809 C38.978,19.519 38.682,19.14 38.462,18.677 C38.245,18.21 38.135,17.65 38.135,16.995 L38.135,16.995 Z M47.017,13.881 C46.522,13.881 46.036,13.919 45.56,13.991 C45.084,14.063 44.661,14.178 44.289,14.332 C43.917,14.486 43.617,14.692 43.39,14.946 C43.162,15.202 43.048,15.51 43.048,15.875 C43.048,16.294 43.185,16.585 43.462,16.748 C43.739,16.911 44.038,16.994 44.361,16.994 C44.665,16.994 44.97,16.931 45.274,16.803 C45.578,16.676 45.85,16.48 46.087,16.216 C46.326,15.952 46.531,15.628 46.703,15.246 C46.873,14.865 46.977,14.41 47.017,13.881 L47.017,13.881 Z" id="Shape" fill="#A7A9AC"></path>
                <path d="M63.234,5.062 C65.023,5.062 66.371,5.591 67.275,6.646 C68.179,7.701 68.632,9.367 68.632,11.643 C68.632,13.063 68.46,14.328 68.118,15.438 C67.774,16.549 67.298,17.491 66.689,18.265 C66.08,19.039 65.367,19.626 64.549,20.026 C63.729,20.426 62.843,20.627 61.893,20.627 C60.884,20.627 60.094,20.417 59.523,19.999 C58.951,19.58 58.505,18.988 58.18,18.224 C58.124,18.88 58.075,19.381 58.038,19.726 C58.001,20.071 57.971,20.349 57.952,20.558 C57.933,20.767 57.919,20.955 57.91,21.118 C57.901,21.282 57.88,21.5 57.852,21.774 C57.824,22.048 57.789,22.42 57.752,22.894 C57.715,23.366 57.657,24.022 57.58,24.859 C57.561,25.078 57.515,25.223 57.438,25.296 C57.361,25.369 57.199,25.406 56.952,25.406 L55.925,25.406 C55.335,25.406 54.854,25.346 54.482,25.228 C54.11,25.109 53.815,24.941 53.597,24.722 C53.379,24.504 53.228,24.235 53.142,23.916 C53.056,23.597 53.012,23.229 53.012,22.81 C53.012,22.628 53.042,22.137 53.098,21.336 C53.156,20.535 53.228,19.575 53.312,18.455 C53.398,17.335 53.493,16.13 53.598,14.837 C53.703,13.545 53.802,12.31 53.898,11.137 C53.993,9.963 54.075,8.92 54.142,8.01 C54.207,7.1 54.261,6.471 54.298,6.126 C54.317,5.726 54.365,5.489 54.442,5.416 C54.498,5.362 54.651,5.334 54.897,5.334 L56.012,5.334 C57.039,5.334 57.785,5.54 58.252,5.948 C58.719,6.358 58.951,6.845 58.951,7.409 C59.39,6.572 59.955,5.971 60.65,5.607 C61.345,5.244 62.207,5.062 63.234,5.062 L63.234,5.062 Z M61.15,8.694 C60.181,8.694 59.465,9.095 59.01,9.895 C58.552,10.697 58.324,11.789 58.324,13.173 C58.324,13.646 58.357,14.111 58.424,14.565 C58.491,15.021 58.61,15.429 58.782,15.794 C58.952,16.158 59.184,16.45 59.481,16.667 C59.774,16.886 60.15,16.995 60.608,16.995 C61.426,16.995 62.111,16.613 62.665,15.848 C63.216,15.084 63.492,13.881 63.492,12.244 C63.492,11.79 63.459,11.347 63.392,10.92 C63.325,10.492 63.206,10.114 63.034,9.787 C62.864,9.459 62.625,9.196 62.321,8.995 C62.017,8.794 61.626,8.694 61.15,8.694 L61.15,8.694 Z" id="Shape" fill="#A7A9AC"></path>
                <path d="M71.375,15.492 C72.174,15.492 72.744,15.68 73.088,16.052 C73.43,16.425 73.602,16.949 73.602,17.622 C73.602,17.895 73.565,18.21 73.488,18.564 C73.411,18.92 73.274,19.247 73.074,19.547 C72.874,19.847 72.593,20.103 72.23,20.311 C71.867,20.52 71.393,20.625 70.803,20.625 C69.927,20.625 69.337,20.411 69.032,19.983 C68.728,19.555 68.574,19.023 68.574,18.386 C68.574,18.022 68.623,17.666 68.718,17.32 C68.813,16.974 68.964,16.664 69.173,16.391 C69.382,16.119 69.668,15.9 70.03,15.737 C70.394,15.575 70.84,15.492 71.375,15.492 L71.375,15.492 Z" id="Shape" fill="#A7A9AC"></path>
                <path d="M77.512,20.353 C76.922,20.353 76.443,20.294 76.071,20.175 C75.699,20.057 75.404,19.888 75.186,19.671 C74.968,19.452 74.814,19.183 74.728,18.865 C74.644,18.546 74.6,18.177 74.6,17.758 C74.6,17.486 74.614,17.099 74.644,16.598 C74.672,16.097 74.723,15.406 74.8,14.523 C74.877,13.641 74.967,12.521 75.072,11.164 C75.177,9.808 75.304,8.129 75.458,6.126 C75.477,5.726 75.523,5.489 75.6,5.416 C75.658,5.362 75.809,5.334 76.058,5.334 L77.171,5.334 C77.761,5.334 78.242,5.388 78.614,5.498 C78.983,5.607 79.279,5.77 79.497,5.989 C79.718,6.208 79.869,6.471 79.955,6.781 C80.041,7.091 80.083,7.437 80.083,7.819 C80.083,8.091 80.064,8.501 80.027,9.048 C79.987,9.594 79.936,10.336 79.869,11.272 C79.802,12.211 79.713,13.375 79.597,14.767 C79.483,16.16 79.341,17.839 79.169,19.805 C79.15,20.024 79.102,20.169 79.027,20.243 C78.95,20.315 78.788,20.352 78.541,20.352 L77.512,20.352 L77.512,20.353 Z M75.485,2.113 C75.485,1.385 75.762,0.812 76.312,0.393 C76.865,-0.026 77.606,-0.235 78.54,-0.235 C79.358,-0.235 79.953,-0.076 80.325,0.243 C80.697,0.562 80.88,0.985 80.88,1.513 C80.88,2.186 80.62,2.746 80.097,3.192 C79.572,3.639 78.805,3.861 77.796,3.861 C76.257,3.861 75.485,3.278 75.485,2.113 L75.485,2.113 Z" id="Shape" fill="#A7A9AC"></path>
                <path d="M90.618,17.95 C90.618,17.55 90.651,17.027 90.718,16.38 C90.785,15.734 90.85,15.051 90.918,14.332 C90.985,13.613 91.05,12.916 91.118,12.243 C91.186,11.57 91.218,11.005 91.218,10.55 C91.218,10.077 91.099,9.653 90.86,9.28 C90.623,8.908 90.161,8.721 89.475,8.721 C88.81,8.721 88.257,8.875 87.82,9.184 C87.381,9.494 87.016,10.058 86.721,10.877 C86.426,11.696 86.182,12.825 85.991,14.264 C85.8,15.702 85.622,17.549 85.45,19.806 C85.431,20.025 85.383,20.17 85.306,20.244 C85.232,20.316 85.069,20.353 84.823,20.353 L83.794,20.353 C83.204,20.353 82.723,20.294 82.353,20.175 C81.981,20.057 81.686,19.888 81.468,19.671 C81.247,19.452 81.096,19.183 81.01,18.865 C80.924,18.546 80.882,18.177 80.882,17.758 C80.882,17.486 80.896,17.099 80.924,16.598 C80.954,16.097 81.005,15.406 81.082,14.523 C81.156,13.641 81.247,12.521 81.354,11.164 C81.456,9.808 81.586,8.129 81.737,6.126 C81.758,5.726 81.804,5.489 81.881,5.416 C81.937,5.362 82.09,5.334 82.336,5.334 L83.451,5.334 C84.02,5.334 84.492,5.398 84.864,5.525 C85.236,5.653 85.536,5.822 85.763,6.031 C85.991,6.24 86.153,6.487 86.249,6.768 C86.344,7.051 86.4,7.338 86.421,7.629 C87.011,6.663 87.685,5.995 88.447,5.621 C89.209,5.249 90.16,5.061 91.303,5.061 C92.102,5.061 92.797,5.143 93.387,5.308 C93.977,5.471 94.468,5.749 94.858,6.14 C95.248,6.532 95.539,7.041 95.729,7.669 C95.917,8.298 96.013,9.076 96.013,10.004 C96.013,10.295 95.994,10.714 95.957,11.26 C95.917,11.807 95.871,12.403 95.813,13.049 C95.757,13.696 95.694,14.369 95.629,15.07 C95.562,15.77 95.499,16.421 95.443,17.022 C95.385,17.622 95.338,18.151 95.299,18.605 C95.262,19.061 95.243,19.361 95.243,19.506 C95.243,19.907 95.194,20.148 95.099,20.229 C95.004,20.311 94.795,20.352 94.472,20.352 L93.559,20.352 C92.948,20.352 92.453,20.298 92.074,20.189 C91.693,20.079 91.398,19.925 91.189,19.725 C90.98,19.525 90.831,19.274 90.745,18.974 C90.659,18.675 90.618,18.332 90.618,17.95 L90.618,17.95 Z" id="Shape" fill="#A7A9AC"></path>
            </g>
        </g>
    </g>
</svg>